<svg data-v-423bf9ae="" xmlns="http://www.w3.org/2000/svg" viewBox="0 0 233.04347688731755 60" class="font"><!----><!----><defs data-v-423bf9ae=""><linearGradient data-v-423bf9ae="" gradientTransform="rotate(25)" id="67552cd8-7045-41b3-b6de-219960c4ebd2" x1="0%" y1="0%" x2="100%" y2="0%"><stop data-v-423bf9ae="" offset="0%" style="stop-color: rgb(13, 124, 233); stop-opacity: 1;"></stop><stop data-v-423bf9ae="" offset="100%" style="stop-color: rgb(21, 207, 241); stop-opacity: 1;"></stop></linearGradient></defs><g data-v-423bf9ae="" id="17705a8e-db8a-4ead-addb-d87817586349" fill="url(#67552cd8-7045-41b3-b6de-219960c4ebd2)" transform="matrix(4.1407868148896405,0,0,4.1407868148896405,-3.478259665872244,-15.238095039965486)"><path d="M8.34 12.04C8.34 10.77 7.70 9.95 7 9.60C7.49 9.21 7.80 8.55 7.80 7.64L7.80 7.53C7.77 5.35 6.65 4.66 4.09 4.66L0.84 4.66L0.84 15.33L4.52 15.33C7.17 15.33 8.34 14.57 8.34 12.19ZM5.89 12.18C5.89 13.09 5.59 13.37 4.69 13.37L3.21 13.37L3.21 10.92L4.63 10.92C5.50 10.92 5.89 11.17 5.89 12.07ZM4.19 6.61C5.05 6.61 5.46 6.82 5.46 7.73L5.46 7.81C5.46 8.71 5.15 8.97 4.28 8.97L3.21 8.97L3.21 6.61ZM11.30 15.15C11.16 15.71 10.60 15.86 10.02 15.86C9.77 15.86 9.49 15.82 9.34 15.76L9.34 18.02C9.55 18.10 9.93 18.17 10.60 18.17C12.54 18.17 13.69 17.28 14.49 14.15L16.35 6.83L13.73 6.83L12.74 12.66L11.44 6.83L8.82 6.83L11.31 15.08ZM20.58 13.36C19.87 13.36 19.61 13.06 19.61 12.14L19.61 9.38L21.14 9.38L21.14 7.32L19.61 7.32L19.61 5.39L17.19 5.39L17.19 12.05C17.19 14.38 17.86 15.50 19.99 15.50C20.47 15.50 20.94 15.44 21.13 15.40L21.13 13.30C20.99 13.34 20.78 13.36 20.58 13.36ZM26.92 12.66C26.87 13.24 26.61 13.58 25.77 13.58C25.02 13.58 24.68 13.16 24.68 12.28L24.68 11.79L29.16 11.79L29.16 9.95C29.16 7.69 28.04 6.66 25.79 6.66C23.48 6.66 22.36 7.92 22.36 9.94L22.36 12.08C22.36 14.46 23.46 15.50 25.79 15.50C28.04 15.50 29.02 14.49 29.09 12.66ZM24.68 9.86C24.68 8.88 25.02 8.50 25.82 8.50C26.57 8.50 26.94 8.89 26.94 9.80L26.94 10.09L24.68 10.09ZM32.84 3.68L30.48 3.68L30.48 5.84L32.84 5.84ZM29.39 17.99C31.88 18.14 32.84 17.40 32.84 14.74L32.84 6.83L30.48 6.83L30.48 14.78C30.48 15.93 30.24 16.06 29.39 16.00ZM36.60 10.02C36.60 9.03 36.89 8.74 37.65 8.74C38.42 8.74 38.71 9.03 38.71 10.02L38.71 12.15C38.71 13.13 38.42 13.43 37.65 13.43C36.89 13.43 36.60 13.13 36.60 12.15ZM37.65 6.66C35.32 6.66 34.23 7.77 34.23 10.05L34.23 12.11C34.23 14.41 35.32 15.50 37.65 15.50C39.98 15.50 41.08 14.41 41.08 12.11L41.08 10.05C41.08 7.77 39.98 6.66 37.65 6.66ZM44.83 4.52L42.46 4.52L42.46 15.33L44.53 15.33L44.63 14.77C45.05 15.25 45.71 15.50 46.51 15.50C48.01 15.50 49.29 14.43 49.29 12.24L49.29 10.05C49.29 7.83 48.33 6.66 46.45 6.66C45.72 6.66 45.16 6.85 44.83 7.13ZM44.83 9.91C44.83 9.04 45.16 8.74 45.88 8.74C46.62 8.74 46.93 9.07 46.93 10.01L46.93 12.14C46.93 13.08 46.55 13.43 45.86 13.43C45.23 13.43 44.83 13.10 44.83 12.21ZM54.10 10.02C53.03 9.87 52.85 9.67 52.85 9.18C52.85 8.75 53.14 8.48 53.76 8.48C54.50 8.48 54.81 8.85 54.81 9.45L56.98 9.45C56.98 7.66 55.97 6.66 53.83 6.66C51.91 6.66 50.57 7.55 50.57 9.28C50.57 11.06 51.63 11.76 53.56 12.00C54.59 12.12 54.78 12.40 54.78 12.91C54.78 13.40 54.45 13.68 53.83 13.68C53.03 13.68 52.68 13.37 52.65 12.68L50.40 12.68C50.40 14.39 51.34 15.50 53.68 15.50C55.76 15.50 57.12 14.56 57.12 12.75C57.12 10.89 55.69 10.23 54.10 10.02Z"></path></g><!----><!----></svg>